<svg width="70" height="70" viewBox="0 0 70 70" fill="none" xmlns="http://www.w3.org/2000/svg">
<g clip-path="url(#clip0_189_90)">
<mask id="mask0_189_90" style="mask-type:alpha" maskUnits="userSpaceOnUse" x="0" y="0" width="70" height="70">
<rect width="70" height="70" fill="#D9D9D9"/>
</mask>
<g mask="url(#mask0_189_90)">
<path d="M24.5729 40.1042C27.2465 40.1528 29.5312 39.2413 31.4271 37.3698C33.3229 35.4983 34.2708 33.2014 34.2708 30.4792C34.2708 29.0694 33.9427 27.7448 33.2865 26.5052C32.6302 25.2656 31.7917 24.1597 30.7708 23.1875C28.9236 21.3403 26.6997 19.9306 24.099 18.9583C21.4983 17.9861 18.8854 17.5 16.2604 17.5C14.7535 17.5 13.6111 17.8767 12.8333 18.6302C12.0556 19.3837 11.6667 20.4653 11.6667 21.875C11.6667 24.4514 12.0677 26.967 12.8698 29.4219C13.6719 31.8767 14.9479 34.0521 16.6979 35.9479C17.7674 37.066 18.9583 38.0382 20.2708 38.8646C21.5833 39.691 23.0174 40.1042 24.5729 40.1042ZM49.875 23.4792L40.6146 14.2188L59.2083 5.39583L60.5208 18.2292L49.875 23.4792ZM58.9167 28.7292C58.0903 29.1181 57.2274 29.2274 56.3281 29.0573C55.4288 28.8872 54.6875 28.4618 54.1042 27.7813L53.0833 26.6875L61.0312 22.8958L61.1771 24.3542C61.3229 25.2778 61.1892 26.1406 60.776 26.9427C60.3628 27.7448 59.7431 28.3403 58.9167 28.7292ZM5.83333 21.875C5.83333 18.6667 6.74479 16.1632 8.5677 14.3646C10.3906 12.566 12.9549 11.6667 16.2604 11.6667C19.7118 11.6667 23.0903 12.3229 26.3958 13.6354C29.7014 14.9479 32.5937 16.8438 35.0729 19.3229C36.5799 20.8299 37.783 22.5313 38.6823 24.4271C39.5816 26.3229 40.0312 28.3403 40.0312 30.4792C40.0312 32.0347 39.8003 33.5417 39.3385 35C38.8767 36.4583 38.1597 37.7951 37.1875 39.0104L58.2604 60.0833L54.1771 64.1667L33.1042 43.0938C31.8403 44.0174 30.4913 44.7344 29.0573 45.2448C27.6233 45.7552 26.1285 45.9861 24.5729 45.9375C22.2396 45.8889 20.0399 45.3299 17.974 44.2604C15.908 43.191 14.0972 41.7569 12.5417 39.9583C10.3542 37.4792 8.68923 34.684 7.54687 31.5729C6.40451 28.4618 5.83333 25.2292 5.83333 21.875Z" fill="#2AFB79"/>
</g>
</g>
<defs>
<clipPath id="clip0_189_90">
<rect width="70" height="70" fill="white"/>
</clipPath>
</defs>
</svg>
