<svg width="70" height="70" viewBox="0 0 70 70" fill="none" xmlns="http://www.w3.org/2000/svg">
<g clip-path="url(#clip0_189_81)">
<mask id="mask0_189_81" style="mask-type:alpha" maskUnits="userSpaceOnUse" x="0" y="0" width="70" height="70">
<rect width="70" height="70" fill="#D9D9D9"/>
</mask>
<g mask="url(#mask0_189_81)">
<path d="M11.8125 32.0833H20.125C19.8333 30.2361 19.2743 28.5104 18.4479 26.9062C17.6215 25.3021 16.5764 23.8681 15.3125 22.6042C14.4375 24.0139 13.6962 25.5087 13.0885 27.0885C12.4809 28.6684 12.0556 30.3333 11.8125 32.0833ZM49.875 32.0833H58.1875C57.9444 30.3333 57.5191 28.6684 56.9115 27.0885C56.3038 25.5087 55.5625 24.0139 54.6875 22.6042C53.4236 23.8681 52.3785 25.3021 51.5521 26.9062C50.7257 28.5104 50.1667 30.2361 49.875 32.0833ZM15.3125 47.3958C16.5764 46.1319 17.6215 44.6979 18.4479 43.0938C19.2743 41.4896 19.8333 39.7639 20.125 37.9167H11.8125C12.0556 39.6667 12.4809 41.3316 13.0885 42.9115C13.6962 44.4913 14.4375 45.9861 15.3125 47.3958ZM54.6875 47.3958C55.5625 45.9861 56.3038 44.4913 56.9115 42.9115C57.5191 41.3316 57.9444 39.6667 58.1875 37.9167H49.875C50.1667 39.7639 50.7257 41.4896 51.5521 43.0938C52.3785 44.6979 53.4236 46.1319 54.6875 47.3958ZM26.1042 32.0833H32.0833V11.8125C29.5069 12.2014 27.1128 12.9184 24.901 13.9635C22.6892 15.0087 20.7083 16.3819 18.9583 18.0833C20.8542 19.9306 22.4219 22.033 23.6615 24.3906C24.901 26.7483 25.7153 29.3125 26.1042 32.0833ZM37.9167 32.0833H43.8958C44.2847 29.3125 45.099 26.7483 46.3385 24.3906C47.5781 22.033 49.1458 19.9306 51.0417 18.0833C49.2917 16.3819 47.3108 15.0087 45.099 13.9635C42.8872 12.9184 40.4931 12.2014 37.9167 11.8125V32.0833ZM32.0833 58.1875V37.9167H26.1042C25.7153 40.6875 24.901 43.2517 23.6615 45.6094C22.4219 47.967 20.8542 50.0694 18.9583 51.9167C20.7083 53.6181 22.6892 54.9913 24.901 56.0365C27.1128 57.0816 29.5069 57.7986 32.0833 58.1875ZM37.9167 58.1875C40.4931 57.7986 42.8872 57.0816 45.099 56.0365C47.3108 54.9913 49.2917 53.6181 51.0417 51.9167C49.1458 50.0694 47.5781 47.967 46.3385 45.6094C45.099 43.2517 44.2847 40.6875 43.8958 37.9167H37.9167V58.1875ZM35 64.1667C30.9653 64.1667 27.1736 63.401 23.625 61.8698C20.0764 60.3385 16.9896 58.2604 14.3646 55.6354C11.7396 53.0104 9.66146 49.9236 8.13021 46.375C6.59896 42.8264 5.83334 39.0347 5.83334 35C5.83334 30.9653 6.59896 27.1736 8.13021 23.625C9.66146 20.0764 11.7396 16.9896 14.3646 14.3646C16.9896 11.7396 20.0764 9.66146 23.625 8.13021C27.1736 6.59896 30.9653 5.83333 35 5.83333C39.0347 5.83333 42.8264 6.59896 46.375 8.13021C49.9236 9.66146 53.0104 11.7396 55.6354 14.3646C58.2604 16.9896 60.3385 20.0764 61.8698 23.625C63.401 27.1736 64.1667 30.9653 64.1667 35C64.1667 39.0347 63.401 42.8264 61.8698 46.375C60.3385 49.9236 58.2604 53.0104 55.6354 55.6354C53.0104 58.2604 49.9236 60.3385 46.375 61.8698C42.8264 63.401 39.0347 64.1667 35 64.1667Z" fill="#2AFB79"/>
</g>
</g>
<defs>
<clipPath id="clip0_189_81">
<rect width="70" height="70" fill="white"/>
</clipPath>
</defs>
</svg>
