<svg width="70" height="70" viewBox="0 0 70 70" fill="none" xmlns="http://www.w3.org/2000/svg">
<g clip-path="url(#clip0_189_86)">
<mask id="mask0_189_86" style="mask-type:alpha" maskUnits="userSpaceOnUse" x="0" y="0" width="70" height="70">
<rect width="70" height="70" fill="#D9D9D9"/>
</mask>
<g mask="url(#mask0_189_86)">
<path d="M43.75 41.4167L35.5833 49.5833C35 50.1667 34.3194 50.4583 33.5417 50.4583C32.7639 50.4583 32.0833 50.1667 31.5 49.5833L6.70833 24.7917C6.12499 24.2083 5.83333 23.5521 5.83333 22.8229C5.83333 22.0937 6.12499 21.4375 6.70833 20.8542L14.875 12.6875C15.4583 12.1042 16.1632 11.8125 16.9896 11.8125C17.816 11.8125 18.5208 12.1042 19.1042 12.6875L43.75 37.3333C44.3333 37.9167 44.625 38.5972 44.625 39.375C44.625 40.1528 44.3333 40.8333 43.75 41.4167ZM33.5417 43.4583L37.625 39.375L16.9167 18.6667L12.8333 22.75L33.5417 43.4583ZM54.25 64.1667L41.8542 51.7708L45.9375 47.6875L58.3333 60.0833L54.25 64.1667ZM53.9583 26.25C51.1389 26.25 48.7326 25.2535 46.7396 23.2604C44.7465 21.2674 43.75 18.8611 43.75 16.0417C43.75 13.2222 44.7465 10.816 46.7396 8.82292C48.7326 6.82986 51.1389 5.83333 53.9583 5.83333C56.7778 5.83333 59.184 6.82986 61.1771 8.82292C63.1701 10.816 64.1667 13.2222 64.1667 16.0417C64.1667 18.8611 63.1701 21.2674 61.1771 23.2604C59.184 25.2535 56.7778 26.25 53.9583 26.25ZM53.9583 20.4167C55.1736 20.4167 56.2066 19.9913 57.0573 19.1406C57.908 18.2899 58.3333 17.2569 58.3333 16.0417C58.3333 14.8264 57.908 13.7934 57.0573 12.9427C56.2066 12.092 55.1736 11.6667 53.9583 11.6667C52.743 11.6667 51.7101 12.092 50.8594 12.9427C50.0087 13.7934 49.5833 14.8264 49.5833 16.0417C49.5833 17.2569 50.0087 18.2899 50.8594 19.1406C51.7101 19.9913 52.743 20.4167 53.9583 20.4167Z" fill="#2AFB79"/>
</g>
</g>
<defs>
<clipPath id="clip0_189_86">
<rect width="70" height="70" fill="white"/>
</clipPath>
</defs>
</svg>
