<svg width="70" height="70" viewBox="0 0 70 70" fill="none" xmlns="http://www.w3.org/2000/svg">
<g clip-path="url(#clip0_189_87)">
<mask id="mask0_189_87" style="mask-type:alpha" maskUnits="userSpaceOnUse" x="0" y="0" width="70" height="70">
<rect width="70" height="70" fill="#D9D9D9"/>
</mask>
<g mask="url(#mask0_189_87)">
<path d="M30.1875 57.75L31.0625 53.6667C31.2083 53.0347 31.5121 52.5122 31.974 52.099C32.4358 51.6858 33.0069 51.4306 33.6875 51.3333L42.7292 50.6042C43.3611 50.5069 43.9444 50.6285 44.4792 50.9687C45.0139 51.309 45.4028 51.7708 45.6458 52.3542L46.8125 55.125C48.7083 54.0069 50.4097 52.658 51.9167 51.0781C53.4236 49.4983 54.6875 47.7361 55.7083 45.7917L54.8333 45.3542C54.2986 44.9653 53.9097 44.4913 53.6667 43.9323C53.4236 43.3733 53.375 42.7778 53.5208 42.1458L55.5625 33.25C55.7083 32.6667 56.0121 32.1806 56.474 31.7917C56.9358 31.4028 57.4583 31.1597 58.0417 31.0625C57.7986 29.8472 57.4948 28.6684 57.1302 27.526C56.7656 26.3837 56.2917 25.2778 55.7083 24.2083C55.2708 24.4514 54.7969 24.5608 54.2865 24.5365C53.776 24.5122 53.3264 24.3542 52.9375 24.0625L45.2083 19.3958C44.6736 19.0556 44.2847 18.5938 44.0417 18.0104C43.7986 17.4271 43.75 16.8194 43.8958 16.1875L44.4792 13.7083C42.9722 13.0278 41.4288 12.5174 39.849 12.1771C38.2691 11.8368 36.6528 11.6667 35 11.6667C34.3194 11.6667 33.6146 11.7031 32.8854 11.776C32.1562 11.849 31.4514 11.9583 30.7708 12.1042L32.9583 17.0625C33.2014 17.6458 33.2621 18.2535 33.1406 18.8854C33.0191 19.5174 32.7153 20.0278 32.2292 20.4167L25.375 26.3958C24.8889 26.8333 24.3177 27.0764 23.6615 27.125C23.0052 27.1736 22.4097 27.0278 21.875 26.6875L15.1667 22.6042C14.0486 24.4514 13.1858 26.4323 12.5781 28.5469C11.9705 30.6615 11.6667 32.8125 11.6667 35C11.6667 35.7778 11.7639 37.0417 11.9583 38.7917L18.375 38.2083C19.0556 38.1111 19.6753 38.2205 20.2344 38.5365C20.7934 38.8524 21.1944 39.3264 21.4375 39.9583L24.9375 48.2708C25.1805 48.8542 25.2413 49.4618 25.1198 50.0937C24.9983 50.7257 24.6944 51.2361 24.2083 51.625L21.4375 53.9583C22.75 54.9306 24.1476 55.7326 25.6302 56.3646C27.1128 56.9965 28.6319 57.4583 30.1875 57.75ZM35.4375 45.2083C34.8055 45.3056 34.2222 45.184 33.6875 44.8437C33.1528 44.5035 32.7639 44.0417 32.5208 43.4583L28.5833 34.4167C28.3403 33.8333 28.3038 33.2257 28.474 32.5937C28.6441 31.9618 28.9722 31.4514 29.4583 31.0625L36.8958 24.7917C37.3333 24.3542 37.868 24.1111 38.5 24.0625C39.1319 24.0139 39.7153 24.1597 40.25 24.5L48.4167 29.3125C48.9514 29.6528 49.3646 30.1146 49.6562 30.6979C49.9479 31.2812 50.0208 31.8889 49.875 32.5208L47.5417 42C47.3958 42.6319 47.1042 43.1545 46.6667 43.5677C46.2292 43.9809 45.6944 44.2361 45.0625 44.3333L35.4375 45.2083ZM35 64.1667C30.9653 64.1667 27.1736 63.401 23.625 61.8698C20.0764 60.3385 16.9896 58.2604 14.3646 55.6354C11.7396 53.0104 9.66145 49.9236 8.1302 46.375C6.59895 42.8264 5.83333 39.0347 5.83333 35C5.83333 30.9653 6.59895 27.1736 8.1302 23.625C9.66145 20.0764 11.7396 16.9896 14.3646 14.3646C16.9896 11.7396 20.0764 9.66146 23.625 8.13021C27.1736 6.59896 30.9653 5.83333 35 5.83333C39.0347 5.83333 42.8264 6.59896 46.375 8.13021C49.9236 9.66146 53.0104 11.7396 55.6354 14.3646C58.2604 16.9896 60.3385 20.0764 61.8698 23.625C63.401 27.1736 64.1667 30.9653 64.1667 35C64.1667 39.0347 63.401 42.8264 61.8698 46.375C60.3385 49.9236 58.2604 53.0104 55.6354 55.6354C53.0104 58.2604 49.9236 60.3385 46.375 61.8698C42.8264 63.401 39.0347 64.1667 35 64.1667Z" fill="#2AFB79"/>
</g>
</g>
<defs>
<clipPath id="clip0_189_87">
<rect width="70" height="70" fill="white"/>
</clipPath>
</defs>
</svg>
