<svg width="927" height="481" viewBox="0 0 927 481" fill="none" xmlns="http://www.w3.org/2000/svg">
<path d="M266.521 0H10C4.47715 0 -0.0211636 4.54195 0.198335 10.0604C6.35819 164.927 154.725 224.118 266.521 229.618V0Z" fill="#F9F9F9"/>
<path d="M377.229 215.267C332.126 233.718 284.289 230.301 266.521 229.618V159.912L397.731 0H905.497C909.917 0 911.072 6.11192 906.956 7.72436L377.229 215.267Z" fill="#F9F9F9"/>
<path d="M266.521 481.309H10C4.47715 481.309 -0.0211636 476.767 0.198335 471.248C6.35819 316.382 154.725 257.191 266.521 251.691V481.309Z" fill="#F9F9F9"/>
<path d="M377.229 266.042C332.126 247.591 284.289 251.007 266.521 251.691V321.396L397.731 481.309H905.497C909.917 481.309 911.072 475.197 906.956 473.584L377.229 266.042Z" fill="#F9F9F9"/>
</svg>
