<svg width="70" height="70" viewBox="0 0 70 70" fill="none" xmlns="http://www.w3.org/2000/svg">
<g clip-path="url(#clip0_189_88)">
<mask id="mask0_189_88" style="mask-type:alpha" maskUnits="userSpaceOnUse" x="0" y="0" width="70" height="70">
<rect width="70" height="70" fill="#D9D9D9"/>
</mask>
<g mask="url(#mask0_189_88)">
<path d="M20.6354 42.2187C21.559 43.1424 22.5799 43.8229 23.6979 44.2604C24.816 44.6979 25.9826 44.9167 27.1979 44.9167C28.4132 44.9167 29.5799 44.6979 30.6979 44.2604C31.816 43.8229 32.8368 43.1424 33.7604 42.2187L36.3854 39.5937C37.309 38.6701 37.9896 37.6493 38.4271 36.5313C38.8646 35.4132 39.0833 34.2465 39.0833 33.0312C39.0833 31.816 38.8646 30.6615 38.4271 29.5677C37.9896 28.474 37.309 27.4653 36.3854 26.5417L25.3021 15.4583C24.7187 14.875 24.026 14.5833 23.224 14.5833C22.4219 14.5833 21.7292 14.875 21.1458 15.4583L9.625 27.0521C9.04166 27.6354 8.75 28.316 8.75 29.0937C8.75 29.8715 9.04166 30.5521 9.625 31.1354L20.6354 42.2187ZM54.1771 64.1667L37.0417 47.0312C35.6319 48.2951 34.0642 49.2187 32.3385 49.8021C30.6128 50.3854 28.875 50.6771 27.125 50.6771C25.1806 50.6771 23.2969 50.3125 21.474 49.5833C19.651 48.8542 18.0104 47.7604 16.5521 46.3021L5.46875 35.2917C4.64236 34.4653 4.01041 33.5052 3.57291 32.4115C3.13541 31.3177 2.91666 30.2118 2.91666 29.0937C2.91666 27.9757 3.13541 26.8698 3.57291 25.776C4.01041 24.6823 4.64236 23.7222 5.46875 22.8958L17.0625 11.3021C17.8889 10.4757 18.849 9.84375 19.9427 9.40625C21.0365 8.96875 22.1424 8.75 23.2604 8.75C24.3785 8.75 25.4844 8.96875 26.5781 9.40625C27.6719 9.84375 28.6319 10.4757 29.4583 11.3021L40.4687 22.3854C41.9271 23.8437 43.0208 25.4844 43.75 27.3073C44.4792 29.1302 44.8437 31.0139 44.8437 32.9583C44.8437 34.7083 44.5399 36.4462 43.9323 38.1719C43.3246 39.8976 42.3889 41.4653 41.125 42.875L58.3333 60.0833L54.1771 64.1667ZM56.875 26.25C54.0556 26.25 51.6493 25.2535 49.6562 23.2604C47.6632 21.2674 46.6667 18.8611 46.6667 16.0417C46.6667 13.2222 47.6632 10.816 49.6562 8.82292C51.6493 6.82986 54.0556 5.83333 56.875 5.83333C59.6944 5.83333 62.1007 6.82986 64.0937 8.82292C66.0868 10.816 67.0833 13.2222 67.0833 16.0417C67.0833 18.8611 66.0868 21.2674 64.0937 23.2604C62.1007 25.2535 59.6944 26.25 56.875 26.25ZM56.875 20.4167C58.0903 20.4167 59.1233 19.9913 59.974 19.1406C60.8246 18.2899 61.25 17.2569 61.25 16.0417C61.25 14.8264 60.8246 13.7934 59.974 12.9427C59.1233 12.092 58.0903 11.6667 56.875 11.6667C55.6597 11.6667 54.6267 12.092 53.776 12.9427C52.9253 13.7934 52.5 14.8264 52.5 16.0417C52.5 17.2569 52.9253 18.2899 53.776 19.1406C54.6267 19.9913 55.6597 20.4167 56.875 20.4167Z" fill="#1C1B1F"/>
</g>
</g>
<defs>
<clipPath id="clip0_189_88">
<rect width="70" height="70" fill="white"/>
</clipPath>
</defs>
</svg>
