<svg width="70" height="70" viewBox="0 0 70 70" fill="none" xmlns="http://www.w3.org/2000/svg">
<path d="M4.1236 32.7791C3.54028 27.4319 5.02237 23.0322 8.57087 19.5808C12.0709 16.0808 16.4951 14.6225 21.8424 15.2058C27.1894 15.7893 32.0505 18.2684 36.4254 22.6433C38.7586 24.9766 40.557 27.5043 41.8209 30.2264C43.0847 32.9485 43.7173 35.7195 43.7174 38.5389C43.7174 43.2541 43.9844 46.7058 44.5191 48.8933C45.0538 51.0808 46.0993 52.9521 47.6549 54.5076L51.7379 58.5916L47.6549 62.7478L43.5709 58.6639C42.0641 57.1572 40.1806 56.1242 37.9205 55.5652C35.6601 55.0062 32.1963 54.7264 27.5299 54.7264C24.7105 54.7264 21.9395 54.0946 19.2174 52.8308C16.4951 51.567 13.9667 49.7687 11.6334 47.4353C7.20987 43.0118 4.70702 38.1262 4.1236 32.7791ZM12.7271 23.6639C10.3938 25.9972 9.51879 29.0479 10.1021 32.8152C10.6855 36.5826 12.533 40.0461 15.6441 43.2058C18.7066 46.2683 22.1702 48.1277 26.0347 48.784C29.8993 49.4402 32.9737 48.65 35.2584 46.4139C37.4944 44.1292 38.3211 41.0428 37.7379 37.1541C37.1545 33.2652 35.3316 29.7889 32.2691 26.7264C29.158 23.6153 25.6698 21.7559 21.8052 21.1482C17.9408 20.5407 14.9146 21.3792 12.7271 23.6639Z" fill="#1C1B1F"/>
<circle cx="55.9993" cy="16" r="7.25" stroke="#1C1B1F" stroke-width="5.5"/>
</svg>
